<svg xmlns="http://www.w3.org/2000/svg" version="1.1" xmlns:xlink="http://www.w3.org/1999/xlink" xmlns:svgjs="http://svgjs.dev/svgjs" width="1500" height="1500" viewBox="0 0 1500 1500"><rect width="1500" height="1500" fill="#ffffff"></rect><g transform="matrix(0.6666666666666666,0,0,0.6666666666666666,249.39393939393938,582.8395257532578)"><svg viewBox="0 0 396 132" data-background-color="#000000" preserveAspectRatio="xMidYMid meet" height="500" width="1500" xmlns="http://www.w3.org/2000/svg" xmlns:xlink="http://www.w3.org/1999/xlink"><g id="tight-bounds" transform="matrix(1,0,0,1,0.2400000000000091,0.19554780170992103)"><svg viewBox="0 0 395.52 131.60890439658016" height="131.60890439658016" width="395.52"><g><svg viewBox="0 0 672.5316362496579 223.784263296058" height="131.60890439658016" width="395.52"><g transform="matrix(1,0,0,1,277.01163624965795,55.52535468467822)"><svg viewBox="0 0 395.52 112.73355392670155" height="112.73355392670155" width="395.52"><g id="textblocktransform"><svg viewBox="0 0 395.52 112.73355392670155" height="112.73355392670155" width="395.52" id="textblock"><g><svg viewBox="0 0 395.52 112.73355392670155" height="112.73355392670155" width="395.52"><g transform="matrix(1,0,0,1,0,0)"><svg width="395.52" viewBox="3.78 -33.48 119.48 34.029999999999994" height="112.73355392670155" data-palette-color="url(#eb4f97d0-f4ff-442e-be34-4c589ab7cdf2)"><g class="wordmark-text-0" data-fill-palette-color="primary" id="text-0"></g></svg></g></svg></g></svg></g></svg></g><g><svg viewBox="0 0 223.784263296058 223.784263296058" height="223.784263296058" width="223.784263296058"><g><svg></svg></g><g id="icon-0"><svg viewBox="0 0 223.784263296058 223.784263296058" height="223.784263296058" width="223.784263296058"><g></g><g transform="matrix(1,0,0,1,50.39584599584671,76.6104848258532)"><svg viewBox="0 0 122.99257130436456 70.56329364435157" height="70.56329364435157" width="122.99257130436456"><g><svg xmlns="http://www.w3.org/2000/svg" xmlns:xlink="http://www.w3.org/1999/xlink" version="1.1" x="0" y="0" viewBox="9.62495563852429 19.042000000000023 52.908078735388784 30.35442105462534" enable-background="new 0 0 72 72" xml:space="preserve" height="70.56329364435157" width="122.99257130436456" class="icon-cg-0" data-fill-palette-color="accent" id="cg-0"></svg></g></svg></g></svg></g></svg></g></svg></g><defs></defs><mask id="e9e4a139-cd02-4bb0-bf6e-c4afbe0045f3"><g id="SvgjsG1005"><svg viewBox="0 0 395.52 131.60890439658016" height="131.60890439658016" width="395.52"><g><svg viewBox="0 0 672.5316362496579 223.784263296058" height="131.60890439658016" width="395.52"><g transform="matrix(1,0,0,1,277.01163624965795,55.52535468467822)"><svg viewBox="0 0 395.52 112.73355392670155" height="112.73355392670155" width="395.52"><g id="SvgjsG1004"><svg viewBox="0 0 395.52 112.73355392670155" height="112.73355392670155" width="395.52" id="SvgjsSvg1003"><g><svg viewBox="0 0 395.52 112.73355392670155" height="112.73355392670155" width="395.52"><g transform="matrix(1,0,0,1,0,0)"><svg width="395.52" viewBox="3.78 -33.48 119.48 34.029999999999994" height="112.73355392670155" data-palette-color="url(#eb4f97d0-f4ff-442e-be34-4c589ab7cdf2)"><g class="wordmark-text-0" data-fill-palette-color="primary" id="SvgjsG1002"><path d="M17.05 0L6.6 0 6.6-3.43 16.65-3.43Q19.9-3.43 21.26-4.81 22.63-6.2 22.63-8.65L22.63-8.65 22.63-9.55Q22.63-12.05 21.24-13.43 19.85-14.8 16.4-14.8L16.4-14.8 6.63-14.8 6.63-18.07 16.35-18.07Q19.43-18.07 20.74-19.41 22.05-20.75 22.05-23.13L22.05-23.13 22.05-23.58Q22.05-25.93 20.79-27.24 19.53-28.55 16.32-28.55L16.32-28.55 6.53-28.55 6.53-31.95 16.7-31.95Q21.8-31.95 24-29.93 26.2-27.9 26.2-24.23L26.2-24.23 26.2-23.73Q26.2-20.8 24.8-19.13 23.4-17.45 20.45-17.13L20.45-17.13 20.43-16.98Q23.8-16.48 25.33-14.63 26.85-12.78 26.85-9.47L26.85-9.47 26.85-8.45Q26.85-4.48 24.55-2.24 22.25 0 17.05 0L17.05 0ZM7.88 0L3.78 0 3.78-31.95 7.88-31.95 7.88 0ZM36.47 0L32.42 0 32.42-24.4 36.47-24.4 36.47 0ZM34.45-28.4L34.45-28.4Q33.2-28.4 32.59-29.06 31.97-29.73 31.97-30.88L31.97-30.88 31.97-31Q31.97-32.18 32.59-32.83 33.2-33.48 34.45-33.48L34.45-33.48Q35.7-33.48 36.32-32.83 36.95-32.18 36.95-31L36.95-31 36.95-30.88Q36.95-29.7 36.32-29.05 35.7-28.4 34.45-28.4ZM63.87 0L59.02 0 49.37-11.38 46.8-11.38 46.8-14.53 49.37-14.53 58.62-24.4 63.42-24.4 52.35-12.63 52.35-13.6 63.87 0ZM47.2 0L43.17 0 43.17-33.13 47.2-33.13 47.2 0ZM72.02 0L67.97 0 67.97-24.4 72.02-24.4 72.02 0ZM69.99-28.4L69.99-28.4Q68.74-28.4 68.13-29.06 67.52-29.73 67.52-30.88L67.52-30.88 67.52-31Q67.52-32.18 68.13-32.83 68.74-33.48 69.99-33.48L69.99-33.48Q71.24-33.48 71.87-32.83 72.49-32.18 72.49-31L72.49-31 72.49-30.88Q72.49-29.7 71.87-29.05 71.24-28.4 69.99-28.4ZM88.97 0.55L88.97 0.55Q83.39 0.55 80.57-2.18 77.74-4.9 77.74-9.98L77.74-9.98 77.74-14.33Q77.74-19.48 80.37-22.26 82.99-25.05 88.04-25.05L88.04-25.05Q91.44-25.05 93.72-23.79 95.99-22.53 97.14-20.2 98.29-17.88 98.29-14.65L98.29-14.65 98.29-13.75Q98.29-12.95 98.23-12.15 98.17-11.35 98.07-10.58L98.07-10.58 94.34-10.58Q94.39-11.78 94.4-12.85 94.42-13.93 94.42-14.83L94.42-14.83Q94.42-17.05 93.7-18.59 92.99-20.13 91.58-20.94 90.17-21.75 88.04-21.75L88.04-21.75Q84.89-21.75 83.32-19.93 81.74-18.1 81.74-14.7L81.74-14.7 81.74-12.38 81.77-11.88 81.77-9.55Q81.77-8.03 82.22-6.8 82.67-5.58 83.63-4.69 84.59-3.8 86.08-3.34 87.57-2.88 89.62-2.88L89.62-2.88Q91.99-2.88 94.04-3.5 96.09-4.13 97.89-5.2L97.89-5.2 97.52-1.7Q95.89-0.68 93.74-0.06 91.59 0.55 88.97 0.55ZM97.22-10.58L79.87-10.58 79.87-13.63 97.22-13.63 97.22-10.58ZM113.94 0.55L113.94 0.55Q108.36 0.55 105.54-2.18 102.71-4.9 102.71-9.98L102.71-9.98 102.71-14.33Q102.71-19.48 105.34-22.26 107.96-25.05 113.01-25.05L113.01-25.05Q116.41-25.05 118.69-23.79 120.96-22.53 122.11-20.2 123.26-17.88 123.26-14.65L123.26-14.65 123.26-13.75Q123.26-12.95 123.2-12.15 123.14-11.35 123.04-10.58L123.04-10.58 119.31-10.58Q119.36-11.78 119.38-12.85 119.39-13.93 119.39-14.83L119.39-14.83Q119.39-17.05 118.68-18.59 117.96-20.13 116.55-20.94 115.14-21.75 113.01-21.75L113.01-21.75Q109.86-21.75 108.29-19.93 106.71-18.1 106.71-14.7L106.71-14.7 106.71-12.38 106.74-11.88 106.74-9.55Q106.74-8.03 107.19-6.8 107.64-5.58 108.6-4.69 109.56-3.8 111.05-3.34 112.54-2.88 114.59-2.88L114.59-2.88Q116.96-2.88 119.01-3.5 121.06-4.13 122.86-5.2L122.86-5.2 122.49-1.7Q120.86-0.68 118.71-0.06 116.56 0.55 113.94 0.55ZM122.19-10.58L104.84-10.58 104.84-13.63 122.19-13.63 122.19-10.58Z" fill="white"></path></g></svg></g></svg></g></svg></g></svg></g><g><svg viewBox="0 0 223.784263296058 223.784263296058" height="223.784263296058" width="223.784263296058"><g><svg></svg></g><g id="SvgjsG1001"><svg viewBox="0 0 223.784263296058 223.784263296058" height="223.784263296058" width="223.784263296058"><g><path d="M0 111.892c0-61.796 50.096-111.892 111.892-111.892 61.796 0 111.892 50.096 111.892 111.892 0 61.796-50.096 111.892-111.892 111.892-61.796 0-111.892-50.096-111.892-111.892zM111.892 213.618c56.182 0 101.726-45.544 101.726-101.726 0-56.182-45.544-101.726-101.726-101.726-56.182 0-101.726 45.544-101.726 101.726 0 56.182 45.544 101.726 101.726 101.726z" fill="black" stroke="transparent"></path></g><g transform="matrix(1,0,0,1,50.39584599584671,76.6104848258532)"><svg viewBox="0 0 122.99257130436456 70.56329364435157" height="70.56329364435157" width="122.99257130436456"><g><svg xmlns="http://www.w3.org/2000/svg" xmlns:xlink="http://www.w3.org/1999/xlink" version="1.1" x="0" y="0" viewBox="9.62495563852429 19.042000000000023 52.908078735388784 30.35442105462534" enable-background="new 0 0 72 72" xml:space="preserve" height="70.56329364435157" width="122.99257130436456" class="icon-cg-0" data-fill-palette-color="accent" id="SvgjsSvg1000"><path d="M62.497 38.331c-0.027-0.091-0.22-0.177-0.321-0.321 0.075-0.161 0.25-0.278 0.256-0.373 0.013-0.119 0.017-0.162-0.058-0.576-0.072-0.414-0.085-0.429-0.135-0.536-0.042-0.086-0.246-0.138-0.371-0.262 0.047-0.171 0.196-0.316 0.188-0.411-0.01-0.119-0.014-0.162-0.157-0.559-0.143-0.395-0.158-0.406-0.226-0.504-0.058-0.077-0.268-0.093-0.413-0.194 0.017-0.177 0.14-0.346 0.114-0.437-0.029-0.115-0.04-0.157-0.251-0.522-0.209-0.364-0.228-0.372-0.311-0.457-0.069-0.067-0.278-0.045-0.439-0.119-0.015-0.177 0.076-0.365 0.036-0.45-0.049-0.108-0.067-0.146-0.338-0.471-0.271-0.323-0.288-0.328-0.386-0.396-0.077-0.053-0.271 0.003-0.439-0.035-0.006-0.006-0.012-0.012-0.019-0.019-0.039-0.169 0.016-0.362-0.037-0.438-0.067-0.098-0.092-0.133-0.415-0.404-0.322-0.271-0.341-0.273-0.448-0.323-0.088-0.039-0.276 0.052-0.452 0.039-0.075-0.161-0.054-0.369-0.121-0.436-0.084-0.085-0.114-0.116-0.479-0.326-0.365-0.212-0.383-0.21-0.499-0.24-0.093-0.024-0.262 0.1-0.438 0.116-0.103-0.146-0.117-0.355-0.195-0.409-0.096-0.07-0.131-0.094-0.528-0.238-0.396-0.144-0.413-0.141-0.531-0.148-0.096-0.008-0.242 0.143-0.414 0.189-0.125-0.125-0.175-0.329-0.261-0.37-0.108-0.051-0.146-0.068-0.562-0.142-0.414-0.074-0.432-0.065-0.551-0.055-0.094 0.008-0.212 0.183-0.372 0.259-0.146-0.102-0.23-0.293-0.323-0.318-0.114-0.033-0.155-0.043-0.577-0.043-0.421 0-0.437 0.01-0.552 0.043-0.092 0.025-0.178 0.217-0.323 0.318-0.161-0.077-0.276-0.251-0.37-0.256-0.121-0.013-0.164-0.016-0.578 0.057-0.416 0.071-0.426 0.086-0.538 0.138-0.085 0.042-0.136 0.245-0.261 0.37-0.172-0.047-0.316-0.199-0.409-0.187-0.121 0.009-0.164 0.013-0.559 0.157-0.397 0.141-0.405 0.156-0.505 0.228-0.073 0.052-0.093 0.237-0.177 0.378l-0.58-1.429c0.099-0.189 0.124-0.414 0.037-0.626l-1.798-4.383c0.096-0.16 0.2-0.338 0.321-0.533 0.382-0.629 0.803-1.398 0.816-2.221 0-0.127-0.019-0.258-0.047-0.389 0.029-0.048 0.059-0.096 0.073-0.154 0 0 0.001 0 0.007-0.025 0.005-0.025 0.012-0.07 0.012-0.118 0.02-0.233-0.174-0.54-0.372-0.624-0.192-0.098-0.337-0.102-0.471-0.104-0.45 0.008-0.95 0.154-1.518 0.286-0.556 0.136-1.146 0.259-1.538 0.257-0.096 0-0.18-0.008-0.241-0.02v0.001c-0.31-0.054-0.604 0.152-0.659 0.462-0.055 0.309 0.152 0.604 0.461 0.659 0.146 0.025 0.293 0.036 0.439 0.036 0.311-0.002 0.633-0.045 0.953-0.104-0.16 0.109-0.418 0.193-0.91 0.201-0.159 0-0.342-0.012-0.551-0.035-0.156-0.018-0.297 0.095-0.314 0.252-0.018 0.156 0.094 0.297 0.25 0.314 0.227 0.025 0.431 0.037 0.617 0.037 0 0 0.005 0 0.009 0 0.672 0 1.103-0.172 1.372-0.42 0.207-0.191 0.307-0.403 0.371-0.533 0.002 0 0.006 0 0.006 0 0.322-0.081 0.634-0.154 0.871-0.202 0.023 0.052 0.039 0.116 0.041 0.222 0.007 0.278-0.156 0.752-0.395 1.191-0.152 0.285-0.326 0.555-0.483 0.784-0.078 0.005-0.157 0.013-0.233 0.044-0.372 0.152-0.55 0.569-0.417 0.944-0.002 0.012-0.007 0.016-0.009 0.029 0 0 0.024 0.19 0.131 0.568l0.1-0.039 0.136 0.33-13.466 6.43-0.404-1.267c-0.046-0.146-0.146-0.255-0.264-0.334l-2.161-6.769c0.458-0.167 0.875-0.328 1.064-0.328 0.4 0 2.021 0.383 3.013 0.383 0.992 0-0.323-1.03-1.105-1.03-0.781 0-7.248 0-7.248 0-0.42 0-0.419 0.553 0.115 0.553 0.533 0 2.021 0.801 2.727 0.801 0.138 0 0.305-0.032 0.481-0.075l2.161 6.769c-0.052 0.133-0.068 0.28-0.021 0.426l0.49 1.536-1.299 0.946c-0.043-0.053-0.096-0.118-0.17-0.208-0.271-0.323-0.288-0.328-0.386-0.396-0.077-0.053-0.271 0.003-0.439-0.035-0.006-0.006-0.012-0.012-0.019-0.019-0.039-0.169 0.016-0.362-0.037-0.438-0.067-0.098-0.092-0.133-0.415-0.404-0.322-0.271-0.341-0.273-0.448-0.323-0.088-0.039-0.276 0.052-0.452 0.039-0.075-0.161-0.054-0.369-0.121-0.436-0.084-0.085-0.114-0.116-0.479-0.326-0.365-0.212-0.383-0.21-0.499-0.24-0.093-0.024-0.262 0.1-0.438 0.116-0.103-0.146-0.117-0.355-0.195-0.409-0.096-0.07-0.131-0.094-0.528-0.238-0.396-0.144-0.413-0.141-0.531-0.148-0.096-0.008-0.242 0.143-0.414 0.189-0.125-0.125-0.175-0.329-0.261-0.37-0.108-0.051-0.146-0.068-0.562-0.142-0.414-0.074-0.432-0.065-0.551-0.055-0.094 0.008-0.212 0.183-0.372 0.259-0.146-0.102-0.23-0.293-0.323-0.318-0.114-0.033-0.155-0.043-0.577-0.043-0.421 0-0.437 0.01-0.552 0.043-0.092 0.025-0.178 0.217-0.323 0.318-0.161-0.077-0.276-0.251-0.37-0.256-0.121-0.013-0.164-0.016-0.578 0.057-0.416 0.071-0.426 0.086-0.538 0.138-0.085 0.042-0.136 0.245-0.261 0.37-0.172-0.047-0.316-0.199-0.409-0.187-0.121 0.009-0.164 0.013-0.559 0.157-0.397 0.141-0.405 0.156-0.505 0.228-0.078 0.056-0.093 0.266-0.193 0.409-0.178-0.016-0.346-0.14-0.436-0.113-0.119 0.03-0.16 0.041-0.523 0.252-0.366 0.209-0.372 0.226-0.458 0.312-0.067 0.067-0.045 0.277-0.118 0.437-0.179 0.015-0.366-0.079-0.449-0.036-0.112 0.051-0.15 0.068-0.473 0.339-0.323 0.27-0.326 0.286-0.396 0.387-0.053 0.078 0.004 0.274-0.036 0.441-0.004 0.004-0.008 0.009-0.013 0.013-0.17 0.041-0.366-0.017-0.44 0.04-0.101 0.067-0.136 0.093-0.406 0.414-0.271 0.322-0.271 0.339-0.322 0.45-0.04 0.088 0.053 0.277 0.037 0.452-0.162 0.075-0.37 0.05-0.433 0.119-0.088 0.086-0.118 0.116-0.329 0.48-0.212 0.364-0.208 0.381-0.24 0.498-0.024 0.094 0.101 0.264 0.116 0.438-0.146 0.103-0.356 0.115-0.408 0.194-0.07 0.1-0.095 0.135-0.237 0.529-0.147 0.396-0.14 0.412-0.151 0.533-0.007 0.096 0.145 0.243 0.19 0.411-0.127 0.126-0.331 0.175-0.368 0.262-0.052 0.109-0.068 0.148-0.142 0.562-0.077 0.414-0.067 0.431-0.058 0.551 0.011 0.096 0.186 0.214 0.26 0.372-0.103 0.146-0.296 0.23-0.316 0.322-0.033 0.117-0.043 0.158-0.042 0.579-0.005 0.422 0.008 0.437 0.038 0.552 0.027 0.092 0.22 0.179 0.32 0.322-0.076 0.161-0.25 0.278-0.255 0.373-0.013 0.12-0.017 0.162 0.058 0.576 0.07 0.416 0.084 0.428 0.135 0.537 0.043 0.086 0.248 0.138 0.372 0.262-0.048 0.172-0.199 0.317-0.188 0.409 0.009 0.122 0.013 0.165 0.156 0.559 0.143 0.397 0.158 0.407 0.228 0.505 0.057 0.078 0.267 0.093 0.41 0.193-0.017 0.179-0.141 0.347-0.112 0.437 0.029 0.117 0.04 0.158 0.251 0.522 0.209 0.366 0.227 0.372 0.311 0.458 0.068 0.065 0.278 0.045 0.438 0.118 0.016 0.179-0.077 0.367-0.034 0.45 0.049 0.111 0.067 0.148 0.339 0.471 0.269 0.325 0.286 0.328 0.384 0.396 0.079 0.054 0.278-0.002 0.448 0.04 0.002 0.002 0.004 0.004 0.007 0.006 0.042 0.171-0.015 0.37 0.041 0.444 0.067 0.101 0.093 0.135 0.415 0.404 0.321 0.274 0.341 0.273 0.449 0.325 0.087 0.039 0.275-0.053 0.451-0.038 0.075 0.162 0.053 0.37 0.121 0.435 0.083 0.087 0.113 0.116 0.479 0.325 0.363 0.213 0.381 0.209 0.497 0.241 0.093 0.022 0.263-0.1 0.438-0.116 0.102 0.146 0.116 0.356 0.194 0.408 0.098 0.071 0.134 0.094 0.529 0.237 0.395 0.146 0.412 0.141 0.533 0.152 0.095 0.006 0.24-0.145 0.41-0.19 0.125 0.126 0.175 0.33 0.264 0.367 0.107 0.053 0.146 0.069 0.56 0.143 0.415 0.075 0.431 0.064 0.552 0.057 0.096-0.01 0.213-0.184 0.372-0.259 0.146 0.102 0.23 0.293 0.323 0.316 0.115 0.033 0.156 0.042 0.576 0.042 0.421 0.003 0.437-0.01 0.553-0.04 0.093-0.026 0.177-0.218 0.32-0.319 0.162 0.076 0.279 0.25 0.374 0.256 0.119 0.012 0.162 0.015 0.576-0.058 0.415-0.07 0.426-0.087 0.537-0.136 0.086-0.043 0.137-0.246 0.261-0.371 0.172 0.047 0.316 0.198 0.412 0.187 0.119-0.009 0.162-0.014 0.556-0.157 0.397-0.142 0.406-0.158 0.506-0.225 0.077-0.058 0.092-0.268 0.193-0.412 0.178 0.017 0.346 0.14 0.438 0.113 0.116-0.03 0.156-0.043 0.521-0.252 0.366-0.209 0.372-0.228 0.458-0.311 0.067-0.069 0.045-0.277 0.118-0.438 0.178-0.015 0.365 0.078 0.451 0.036 0.109-0.05 0.148-0.068 0.47-0.339 0.323-0.27 0.326-0.288 0.397-0.386 0.053-0.078-0.004-0.275 0.037-0.444 0.004-0.003 0.007-0.007 0.011-0.011 0.17-0.041 0.367 0.016 0.443-0.04 0.099-0.068 0.134-0.093 0.403-0.415 0.271-0.321 0.271-0.34 0.324-0.447 0.039-0.09-0.054-0.278-0.039-0.454 0.162-0.074 0.37-0.052 0.437-0.121 0.085-0.084 0.115-0.114 0.324-0.479 0.078-0.134 0.122-0.212 0.154-0.274l3.732-0.296c0.091 0.009 0.179 0.027 0.271 0.027 1.512 0 2.737-1.226 2.737-2.737 0-0.608-0.205-1.166-0.542-1.62l9.592-12.676 0.657 1.603c0.079 0.194 0.233 0.33 0.413 0.403l0.515 1.269c-0.331 0.19-0.347 0.212-0.43 0.296-0.067 0.067-0.045 0.277-0.118 0.437-0.179 0.015-0.366-0.079-0.449-0.036-0.112 0.051-0.15 0.068-0.473 0.339-0.323 0.27-0.326 0.286-0.396 0.387-0.053 0.078 0.004 0.274-0.036 0.441-0.004 0.004-0.008 0.009-0.013 0.013-0.17 0.041-0.366-0.017-0.44 0.04-0.101 0.067-0.136 0.093-0.406 0.414-0.271 0.322-0.271 0.339-0.322 0.45-0.04 0.088 0.053 0.277 0.037 0.452-0.162 0.075-0.37 0.05-0.433 0.119-0.088 0.086-0.118 0.116-0.329 0.48-0.212 0.364-0.208 0.381-0.24 0.498-0.024 0.094 0.101 0.264 0.116 0.438-0.146 0.103-0.356 0.115-0.408 0.194-0.07 0.1-0.095 0.135-0.237 0.529-0.147 0.396-0.14 0.412-0.151 0.533-0.007 0.096 0.145 0.243 0.19 0.411-0.127 0.126-0.331 0.175-0.368 0.262-0.052 0.109-0.068 0.148-0.142 0.562-0.077 0.414-0.067 0.431-0.058 0.551 0.011 0.096 0.186 0.214 0.26 0.372-0.103 0.146-0.296 0.23-0.316 0.322-0.033 0.117-0.043 0.158-0.042 0.579-0.005 0.422 0.008 0.437 0.038 0.552 0.027 0.092 0.22 0.179 0.32 0.322-0.076 0.161-0.25 0.278-0.255 0.373-0.013 0.12-0.017 0.162 0.058 0.576 0.07 0.416 0.084 0.428 0.135 0.537 0.043 0.086 0.248 0.138 0.372 0.262-0.048 0.172-0.199 0.317-0.188 0.409 0.009 0.122 0.013 0.165 0.156 0.559 0.143 0.397 0.158 0.407 0.228 0.505 0.057 0.078 0.267 0.093 0.41 0.193-0.017 0.179-0.141 0.347-0.112 0.437 0.029 0.117 0.04 0.158 0.251 0.522 0.209 0.366 0.227 0.372 0.311 0.458 0.068 0.065 0.278 0.045 0.438 0.118 0.016 0.179-0.077 0.367-0.034 0.45 0.049 0.111 0.067 0.148 0.339 0.471 0.269 0.325 0.286 0.328 0.384 0.396 0.079 0.054 0.278-0.002 0.448 0.04 0.002 0.002 0.004 0.004 0.007 0.006 0.042 0.171-0.015 0.37 0.041 0.444 0.067 0.101 0.093 0.135 0.415 0.404 0.321 0.274 0.341 0.273 0.449 0.325 0.087 0.039 0.275-0.053 0.451-0.038 0.075 0.162 0.053 0.37 0.121 0.435 0.083 0.087 0.113 0.116 0.479 0.325 0.363 0.213 0.381 0.209 0.497 0.241 0.093 0.022 0.263-0.1 0.438-0.116 0.102 0.146 0.116 0.356 0.194 0.408 0.098 0.071 0.134 0.094 0.529 0.237 0.395 0.146 0.412 0.141 0.533 0.152 0.095 0.006 0.24-0.145 0.41-0.19 0.125 0.126 0.175 0.33 0.264 0.367 0.107 0.053 0.146 0.069 0.56 0.143 0.415 0.075 0.431 0.064 0.552 0.057 0.096-0.01 0.213-0.184 0.372-0.259 0.146 0.102 0.23 0.293 0.323 0.316 0.115 0.033 0.156 0.042 0.576 0.042 0.421 0.003 0.437-0.01 0.553-0.04 0.093-0.026 0.177-0.218 0.32-0.319 0.162 0.076 0.279 0.25 0.374 0.256 0.119 0.012 0.162 0.015 0.576-0.058 0.415-0.07 0.426-0.087 0.537-0.136 0.086-0.043 0.137-0.246 0.261-0.371 0.172 0.047 0.316 0.198 0.412 0.187 0.119-0.009 0.162-0.014 0.556-0.157 0.397-0.142 0.406-0.158 0.506-0.225 0.077-0.058 0.092-0.268 0.193-0.412 0.178 0.017 0.346 0.14 0.438 0.113 0.116-0.03 0.156-0.043 0.521-0.252 0.366-0.209 0.372-0.228 0.458-0.311 0.067-0.069 0.045-0.277 0.118-0.438 0.178-0.015 0.365 0.078 0.451 0.036 0.109-0.05 0.148-0.068 0.47-0.339 0.323-0.27 0.326-0.288 0.397-0.386 0.053-0.078-0.004-0.275 0.037-0.444 0.004-0.003 0.007-0.007 0.011-0.011 0.17-0.041 0.367 0.016 0.443-0.04 0.099-0.068 0.134-0.093 0.403-0.415 0.271-0.321 0.271-0.34 0.324-0.447 0.039-0.09-0.054-0.278-0.039-0.454 0.162-0.074 0.37-0.052 0.437-0.121 0.085-0.084 0.115-0.114 0.324-0.479 0.213-0.363 0.21-0.382 0.243-0.496 0.023-0.095-0.101-0.264-0.117-0.439 0.146-0.102 0.354-0.117 0.408-0.195 0.07-0.098 0.095-0.133 0.237-0.527 0.146-0.396 0.141-0.412 0.152-0.532 0.006-0.097-0.145-0.242-0.191-0.413 0.127-0.125 0.33-0.176 0.368-0.262 0.051-0.108 0.069-0.147 0.142-0.562 0.075-0.413 0.067-0.431 0.058-0.549-0.011-0.097-0.185-0.214-0.26-0.373 0.103-0.145 0.294-0.23 0.316-0.321 0.032-0.117 0.043-0.158 0.042-0.58C62.538 38.462 62.527 38.447 62.497 38.331zM26.527 34.891c0.587 0.937 0.979 2.008 1.106 3.161l-5.264-0.132L26.527 34.891zM25.786 43.892l-4.157 0.33c0.052-0.094 0.089-0.197 0.089-0.312 0-0.365-0.296-0.662-0.662-0.662-0.365 0-0.662 0.297-0.662 0.662s0.297 0.662 0.662 0.662c0.107 0 0.206-0.032 0.296-0.078l4.189-0.332c-1.373 1.411-3.289 2.291-5.414 2.291-4.175 0-7.559-3.384-7.559-7.557 0-4.175 3.384-7.56 7.559-7.56 2.343 0 4.436 1.066 5.821 2.74l-5.219 3.802-0.225-0.006c-0.228-0.117-0.482-0.19-0.757-0.19-0.916 0-1.662 0.746-1.662 1.666 0 0.918 0.746 1.66 1.662 1.66 0.635 0 1.18-0.357 1.46-0.878l6.225 0.668C27.13 41.963 26.56 43.017 25.786 43.892zM27.622 39.813l-6.23-0.669c-0.019-0.151-0.051-0.298-0.106-0.434l0.753-0.549 5.615 0.141c0.016 0.197 0.03 0.394 0.03 0.594C27.684 39.207 27.659 39.512 27.622 39.813zM29.205 33.636c-0.209-0.364-0.228-0.372-0.311-0.457-0.002-0.002-0.009-0.001-0.012-0.003l1.06-0.772 1.837 5.753-1.417-0.036c-0.038-0.033-0.075-0.069-0.104-0.111 0.075-0.161 0.25-0.278 0.256-0.373 0.013-0.119 0.017-0.162-0.058-0.576-0.072-0.414-0.085-0.429-0.135-0.536-0.042-0.086-0.246-0.138-0.371-0.262 0.047-0.171 0.196-0.316 0.188-0.411-0.01-0.119-0.014-0.162-0.157-0.559-0.143-0.395-0.158-0.406-0.226-0.504-0.058-0.077-0.268-0.093-0.413-0.194 0.017-0.177 0.14-0.346 0.114-0.437C29.427 34.043 29.416 34.001 29.205 33.636zM31.682 40.122c-0.268-0.034-0.383-0.257-0.256-0.496 0 0 0.198-0.371 0.588-0.655 0.007-0.005 0.015-0.008 0.021-0.013l0.403 1.263L31.682 40.122zM32.541 41.347c-0.004 0.061-0.018 0.123-0.045 0.18l-0.337 0.712c-0.115 0.244-0.364 0.285-0.551 0.09 0 0-0.293-0.303-0.443-0.762-0.043-0.134-0.065-0.26-0.08-0.377L32.541 41.347zM30.743 40.148l-0.239-0.026c-0.039-0.09-0.178-0.198-0.245-0.339 0.103-0.145 0.294-0.23 0.316-0.321 0.032-0.117 0.043-0.158 0.042-0.58 0.003-0.357-0.006-0.423-0.026-0.505l1.27 0.032 0.045 0.143C31.339 38.915 30.922 39.481 30.743 40.148zM29.454 43.602c-0.002-0.098-0.095-0.245-0.109-0.404 0.146-0.102 0.354-0.117 0.408-0.195 0.07-0.098 0.095-0.133 0.237-0.527 0.146-0.396 0.141-0.412 0.152-0.532 0.006-0.097-0.145-0.242-0.191-0.413 0.127-0.125 0.33-0.176 0.368-0.262 0.023-0.05 0.04-0.088 0.059-0.153l0.292 0.031c0.108 1.004 0.747 1.85 1.643 2.229L29.454 43.602zM34.236 42.991c0 0-0.38 0.185-0.863 0.185-0.482 0-0.861-0.185-0.861-0.185-0.242-0.118-0.278-0.364-0.08-0.546l0.598-0.55c0.199-0.184 0.521-0.181 0.717 0.005l0.574 0.541C34.516 42.625 34.479 42.874 34.236 42.991zM33.548 39.014c-0.05-0.265 0.128-0.444 0.394-0.397 0 0 0.076 0.017 0.18 0.049l-0.512 0.676L33.548 39.014zM35.678 40.697c0 0 0.059 0.418-0.09 0.878-0.15 0.458-0.443 0.762-0.443 0.762-0.187 0.195-0.432 0.152-0.545-0.092l-0.338-0.739c-0.113-0.246-0.012-0.552 0.225-0.68l0.692-0.378C35.416 40.317 35.641 40.431 35.678 40.697zM34.884 40.143l0.424-0.56c0.015 0.024 0.028 0.048 0.028 0.048 0.127 0.237 0.012 0.458-0.256 0.489L34.884 40.143zM34.388 38.314c-0.313-0.125-0.653-0.198-1.011-0.198-0.082 0-0.158 0.017-0.238 0.024l-2.057-6.442 13.015-6.215L34.388 38.314zM52.045 46.454c-4.174 0-7.559-3.384-7.559-7.558 0-2.671 1.389-5.013 3.479-6.358l3.078 7.388c0.145 0.349 0.482 0.559 0.837 0.559 0.116 0 0.234-0.022 0.349-0.07 0.357-0.149 0.563-0.5 0.552-0.865 0.185-0.075 0.314-0.255 0.314-0.466 0-0.28-0.227-0.506-0.506-0.506-0.047 0-0.089 0.015-0.133 0.027l-2.856-6.856c0.768-0.262 1.588-0.412 2.444-0.412 4.174 0 7.558 3.384 7.558 7.56C59.603 43.069 56.219 46.454 52.045 46.454zM20.83 41.922c0 0.365 0.297 0.661 0.662 0.661 0.366 0 0.662-0.296 0.662-0.661 0-0.366-0.296-0.663-0.662-0.663C21.127 41.259 20.83 41.556 20.83 41.922z" fill="black"></path></svg></g></svg></g></svg></g></svg></g></svg></g><defs><mask></mask></defs></svg><rect width="395.52" height="131.60890439658016" fill="black" stroke="none" visibility="hidden"></rect></g></mask><linearGradient x1="0.054" x2="0.941" y1="0.5" y2="0.5" id="eb4f97d0-f4ff-442e-be34-4c589ab7cdf2"><stop stop-color="#9c7945" offset="0"></stop><stop stop-color="#faf3aa" offset="0.498"></stop><stop stop-color="#9c7945" offset="1"></stop></linearGradient><rect width="395.52" height="131.60890439658016" fill="#000000" mask="url(#e9e4a139-cd02-4bb0-bf6e-c4afbe0045f3)" data-fill-palette-color="primary"></rect><mask id="ed388cef-dfcf-498c-b550-267158ba795b"><g id="SvgjsG1030"><svg viewBox="0 0 395.52 131.60890439658016" height="131.60890439658016" width="395.52"><g><svg viewBox="0 0 672.5316362496579 223.784263296058" height="131.60890439658016" width="395.52"><g transform="matrix(1,0,0,1,277.01163624965795,55.52535468467822)"><svg viewBox="0 0 395.52 112.73355392670155" height="112.73355392670155" width="395.52"><g id="SvgjsG1029"><svg viewBox="0 0 395.52 112.73355392670155" height="112.73355392670155" width="395.52" id="SvgjsSvg1028"><g><svg viewBox="0 0 395.52 112.73355392670155" height="112.73355392670155" width="395.52"><g transform="matrix(1,0,0,1,0,0)"><svg width="395.52" viewBox="3.78 -33.48 119.48 34.029999999999994" height="112.73355392670155" data-palette-color="url(#eb4f97d0-f4ff-442e-be34-4c589ab7cdf2)"><g class="wordmark-text-0" data-fill-palette-color="primary" id="SvgjsG1027"></g></svg></g></svg></g></svg></g></svg></g><g><svg viewBox="0 0 223.784263296058 223.784263296058" height="223.784263296058" width="223.784263296058"><g><svg></svg></g><g id="SvgjsG1026"><svg viewBox="0 0 223.784263296058 223.784263296058" height="223.784263296058" width="223.784263296058"><g><path d="M0 111.892c0-61.796 50.096-111.892 111.892-111.892 61.796 0 111.892 50.096 111.892 111.892 0 61.796-50.096 111.892-111.892 111.892-61.796 0-111.892-50.096-111.892-111.892zM111.892 213.618c56.182 0 101.726-45.544 101.726-101.726 0-56.182-45.544-101.726-101.726-101.726-56.182 0-101.726 45.544-101.726 101.726 0 56.182 45.544 101.726 101.726 101.726z" fill="white" stroke="transparent"></path></g><g transform="matrix(1,0,0,1,50.39584599584671,76.6104848258532)"><svg viewBox="0 0 122.99257130436456 70.56329364435157" height="70.56329364435157" width="122.99257130436456"><g><svg xmlns="http://www.w3.org/2000/svg" xmlns:xlink="http://www.w3.org/1999/xlink" version="1.1" x="0" y="0" viewBox="9.62495563852429 19.042000000000023 52.908078735388784 30.35442105462534" enable-background="new 0 0 72 72" xml:space="preserve" height="70.56329364435157" width="122.99257130436456" class="icon-cg-0" data-fill-palette-color="accent" id="SvgjsSvg1025"><path d="M62.497 38.331c-0.027-0.091-0.22-0.177-0.321-0.321 0.075-0.161 0.25-0.278 0.256-0.373 0.013-0.119 0.017-0.162-0.058-0.576-0.072-0.414-0.085-0.429-0.135-0.536-0.042-0.086-0.246-0.138-0.371-0.262 0.047-0.171 0.196-0.316 0.188-0.411-0.01-0.119-0.014-0.162-0.157-0.559-0.143-0.395-0.158-0.406-0.226-0.504-0.058-0.077-0.268-0.093-0.413-0.194 0.017-0.177 0.14-0.346 0.114-0.437-0.029-0.115-0.04-0.157-0.251-0.522-0.209-0.364-0.228-0.372-0.311-0.457-0.069-0.067-0.278-0.045-0.439-0.119-0.015-0.177 0.076-0.365 0.036-0.45-0.049-0.108-0.067-0.146-0.338-0.471-0.271-0.323-0.288-0.328-0.386-0.396-0.077-0.053-0.271 0.003-0.439-0.035-0.006-0.006-0.012-0.012-0.019-0.019-0.039-0.169 0.016-0.362-0.037-0.438-0.067-0.098-0.092-0.133-0.415-0.404-0.322-0.271-0.341-0.273-0.448-0.323-0.088-0.039-0.276 0.052-0.452 0.039-0.075-0.161-0.054-0.369-0.121-0.436-0.084-0.085-0.114-0.116-0.479-0.326-0.365-0.212-0.383-0.21-0.499-0.24-0.093-0.024-0.262 0.1-0.438 0.116-0.103-0.146-0.117-0.355-0.195-0.409-0.096-0.07-0.131-0.094-0.528-0.238-0.396-0.144-0.413-0.141-0.531-0.148-0.096-0.008-0.242 0.143-0.414 0.189-0.125-0.125-0.175-0.329-0.261-0.37-0.108-0.051-0.146-0.068-0.562-0.142-0.414-0.074-0.432-0.065-0.551-0.055-0.094 0.008-0.212 0.183-0.372 0.259-0.146-0.102-0.23-0.293-0.323-0.318-0.114-0.033-0.155-0.043-0.577-0.043-0.421 0-0.437 0.01-0.552 0.043-0.092 0.025-0.178 0.217-0.323 0.318-0.161-0.077-0.276-0.251-0.37-0.256-0.121-0.013-0.164-0.016-0.578 0.057-0.416 0.071-0.426 0.086-0.538 0.138-0.085 0.042-0.136 0.245-0.261 0.37-0.172-0.047-0.316-0.199-0.409-0.187-0.121 0.009-0.164 0.013-0.559 0.157-0.397 0.141-0.405 0.156-0.505 0.228-0.073 0.052-0.093 0.237-0.177 0.378l-0.58-1.429c0.099-0.189 0.124-0.414 0.037-0.626l-1.798-4.383c0.096-0.16 0.2-0.338 0.321-0.533 0.382-0.629 0.803-1.398 0.816-2.221 0-0.127-0.019-0.258-0.047-0.389 0.029-0.048 0.059-0.096 0.073-0.154 0 0 0.001 0 0.007-0.025 0.005-0.025 0.012-0.07 0.012-0.118 0.02-0.233-0.174-0.54-0.372-0.624-0.192-0.098-0.337-0.102-0.471-0.104-0.45 0.008-0.95 0.154-1.518 0.286-0.556 0.136-1.146 0.259-1.538 0.257-0.096 0-0.18-0.008-0.241-0.02v0.001c-0.31-0.054-0.604 0.152-0.659 0.462-0.055 0.309 0.152 0.604 0.461 0.659 0.146 0.025 0.293 0.036 0.439 0.036 0.311-0.002 0.633-0.045 0.953-0.104-0.16 0.109-0.418 0.193-0.91 0.201-0.159 0-0.342-0.012-0.551-0.035-0.156-0.018-0.297 0.095-0.314 0.252-0.018 0.156 0.094 0.297 0.25 0.314 0.227 0.025 0.431 0.037 0.617 0.037 0 0 0.005 0 0.009 0 0.672 0 1.103-0.172 1.372-0.42 0.207-0.191 0.307-0.403 0.371-0.533 0.002 0 0.006 0 0.006 0 0.322-0.081 0.634-0.154 0.871-0.202 0.023 0.052 0.039 0.116 0.041 0.222 0.007 0.278-0.156 0.752-0.395 1.191-0.152 0.285-0.326 0.555-0.483 0.784-0.078 0.005-0.157 0.013-0.233 0.044-0.372 0.152-0.55 0.569-0.417 0.944-0.002 0.012-0.007 0.016-0.009 0.029 0 0 0.024 0.19 0.131 0.568l0.1-0.039 0.136 0.33-13.466 6.43-0.404-1.267c-0.046-0.146-0.146-0.255-0.264-0.334l-2.161-6.769c0.458-0.167 0.875-0.328 1.064-0.328 0.4 0 2.021 0.383 3.013 0.383 0.992 0-0.323-1.03-1.105-1.03-0.781 0-7.248 0-7.248 0-0.42 0-0.419 0.553 0.115 0.553 0.533 0 2.021 0.801 2.727 0.801 0.138 0 0.305-0.032 0.481-0.075l2.161 6.769c-0.052 0.133-0.068 0.28-0.021 0.426l0.49 1.536-1.299 0.946c-0.043-0.053-0.096-0.118-0.17-0.208-0.271-0.323-0.288-0.328-0.386-0.396-0.077-0.053-0.271 0.003-0.439-0.035-0.006-0.006-0.012-0.012-0.019-0.019-0.039-0.169 0.016-0.362-0.037-0.438-0.067-0.098-0.092-0.133-0.415-0.404-0.322-0.271-0.341-0.273-0.448-0.323-0.088-0.039-0.276 0.052-0.452 0.039-0.075-0.161-0.054-0.369-0.121-0.436-0.084-0.085-0.114-0.116-0.479-0.326-0.365-0.212-0.383-0.21-0.499-0.24-0.093-0.024-0.262 0.1-0.438 0.116-0.103-0.146-0.117-0.355-0.195-0.409-0.096-0.07-0.131-0.094-0.528-0.238-0.396-0.144-0.413-0.141-0.531-0.148-0.096-0.008-0.242 0.143-0.414 0.189-0.125-0.125-0.175-0.329-0.261-0.37-0.108-0.051-0.146-0.068-0.562-0.142-0.414-0.074-0.432-0.065-0.551-0.055-0.094 0.008-0.212 0.183-0.372 0.259-0.146-0.102-0.23-0.293-0.323-0.318-0.114-0.033-0.155-0.043-0.577-0.043-0.421 0-0.437 0.01-0.552 0.043-0.092 0.025-0.178 0.217-0.323 0.318-0.161-0.077-0.276-0.251-0.37-0.256-0.121-0.013-0.164-0.016-0.578 0.057-0.416 0.071-0.426 0.086-0.538 0.138-0.085 0.042-0.136 0.245-0.261 0.37-0.172-0.047-0.316-0.199-0.409-0.187-0.121 0.009-0.164 0.013-0.559 0.157-0.397 0.141-0.405 0.156-0.505 0.228-0.078 0.056-0.093 0.266-0.193 0.409-0.178-0.016-0.346-0.14-0.436-0.113-0.119 0.03-0.16 0.041-0.523 0.252-0.366 0.209-0.372 0.226-0.458 0.312-0.067 0.067-0.045 0.277-0.118 0.437-0.179 0.015-0.366-0.079-0.449-0.036-0.112 0.051-0.15 0.068-0.473 0.339-0.323 0.27-0.326 0.286-0.396 0.387-0.053 0.078 0.004 0.274-0.036 0.441-0.004 0.004-0.008 0.009-0.013 0.013-0.17 0.041-0.366-0.017-0.44 0.04-0.101 0.067-0.136 0.093-0.406 0.414-0.271 0.322-0.271 0.339-0.322 0.45-0.04 0.088 0.053 0.277 0.037 0.452-0.162 0.075-0.37 0.05-0.433 0.119-0.088 0.086-0.118 0.116-0.329 0.48-0.212 0.364-0.208 0.381-0.24 0.498-0.024 0.094 0.101 0.264 0.116 0.438-0.146 0.103-0.356 0.115-0.408 0.194-0.07 0.1-0.095 0.135-0.237 0.529-0.147 0.396-0.14 0.412-0.151 0.533-0.007 0.096 0.145 0.243 0.19 0.411-0.127 0.126-0.331 0.175-0.368 0.262-0.052 0.109-0.068 0.148-0.142 0.562-0.077 0.414-0.067 0.431-0.058 0.551 0.011 0.096 0.186 0.214 0.26 0.372-0.103 0.146-0.296 0.23-0.316 0.322-0.033 0.117-0.043 0.158-0.042 0.579-0.005 0.422 0.008 0.437 0.038 0.552 0.027 0.092 0.22 0.179 0.32 0.322-0.076 0.161-0.25 0.278-0.255 0.373-0.013 0.12-0.017 0.162 0.058 0.576 0.07 0.416 0.084 0.428 0.135 0.537 0.043 0.086 0.248 0.138 0.372 0.262-0.048 0.172-0.199 0.317-0.188 0.409 0.009 0.122 0.013 0.165 0.156 0.559 0.143 0.397 0.158 0.407 0.228 0.505 0.057 0.078 0.267 0.093 0.41 0.193-0.017 0.179-0.141 0.347-0.112 0.437 0.029 0.117 0.04 0.158 0.251 0.522 0.209 0.366 0.227 0.372 0.311 0.458 0.068 0.065 0.278 0.045 0.438 0.118 0.016 0.179-0.077 0.367-0.034 0.45 0.049 0.111 0.067 0.148 0.339 0.471 0.269 0.325 0.286 0.328 0.384 0.396 0.079 0.054 0.278-0.002 0.448 0.04 0.002 0.002 0.004 0.004 0.007 0.006 0.042 0.171-0.015 0.37 0.041 0.444 0.067 0.101 0.093 0.135 0.415 0.404 0.321 0.274 0.341 0.273 0.449 0.325 0.087 0.039 0.275-0.053 0.451-0.038 0.075 0.162 0.053 0.37 0.121 0.435 0.083 0.087 0.113 0.116 0.479 0.325 0.363 0.213 0.381 0.209 0.497 0.241 0.093 0.022 0.263-0.1 0.438-0.116 0.102 0.146 0.116 0.356 0.194 0.408 0.098 0.071 0.134 0.094 0.529 0.237 0.395 0.146 0.412 0.141 0.533 0.152 0.095 0.006 0.24-0.145 0.41-0.19 0.125 0.126 0.175 0.33 0.264 0.367 0.107 0.053 0.146 0.069 0.56 0.143 0.415 0.075 0.431 0.064 0.552 0.057 0.096-0.01 0.213-0.184 0.372-0.259 0.146 0.102 0.23 0.293 0.323 0.316 0.115 0.033 0.156 0.042 0.576 0.042 0.421 0.003 0.437-0.01 0.553-0.04 0.093-0.026 0.177-0.218 0.32-0.319 0.162 0.076 0.279 0.25 0.374 0.256 0.119 0.012 0.162 0.015 0.576-0.058 0.415-0.07 0.426-0.087 0.537-0.136 0.086-0.043 0.137-0.246 0.261-0.371 0.172 0.047 0.316 0.198 0.412 0.187 0.119-0.009 0.162-0.014 0.556-0.157 0.397-0.142 0.406-0.158 0.506-0.225 0.077-0.058 0.092-0.268 0.193-0.412 0.178 0.017 0.346 0.14 0.438 0.113 0.116-0.03 0.156-0.043 0.521-0.252 0.366-0.209 0.372-0.228 0.458-0.311 0.067-0.069 0.045-0.277 0.118-0.438 0.178-0.015 0.365 0.078 0.451 0.036 0.109-0.05 0.148-0.068 0.47-0.339 0.323-0.27 0.326-0.288 0.397-0.386 0.053-0.078-0.004-0.275 0.037-0.444 0.004-0.003 0.007-0.007 0.011-0.011 0.17-0.041 0.367 0.016 0.443-0.04 0.099-0.068 0.134-0.093 0.403-0.415 0.271-0.321 0.271-0.34 0.324-0.447 0.039-0.09-0.054-0.278-0.039-0.454 0.162-0.074 0.37-0.052 0.437-0.121 0.085-0.084 0.115-0.114 0.324-0.479 0.078-0.134 0.122-0.212 0.154-0.274l3.732-0.296c0.091 0.009 0.179 0.027 0.271 0.027 1.512 0 2.737-1.226 2.737-2.737 0-0.608-0.205-1.166-0.542-1.62l9.592-12.676 0.657 1.603c0.079 0.194 0.233 0.33 0.413 0.403l0.515 1.269c-0.331 0.19-0.347 0.212-0.43 0.296-0.067 0.067-0.045 0.277-0.118 0.437-0.179 0.015-0.366-0.079-0.449-0.036-0.112 0.051-0.15 0.068-0.473 0.339-0.323 0.27-0.326 0.286-0.396 0.387-0.053 0.078 0.004 0.274-0.036 0.441-0.004 0.004-0.008 0.009-0.013 0.013-0.17 0.041-0.366-0.017-0.44 0.04-0.101 0.067-0.136 0.093-0.406 0.414-0.271 0.322-0.271 0.339-0.322 0.45-0.04 0.088 0.053 0.277 0.037 0.452-0.162 0.075-0.37 0.05-0.433 0.119-0.088 0.086-0.118 0.116-0.329 0.48-0.212 0.364-0.208 0.381-0.24 0.498-0.024 0.094 0.101 0.264 0.116 0.438-0.146 0.103-0.356 0.115-0.408 0.194-0.07 0.1-0.095 0.135-0.237 0.529-0.147 0.396-0.14 0.412-0.151 0.533-0.007 0.096 0.145 0.243 0.19 0.411-0.127 0.126-0.331 0.175-0.368 0.262-0.052 0.109-0.068 0.148-0.142 0.562-0.077 0.414-0.067 0.431-0.058 0.551 0.011 0.096 0.186 0.214 0.26 0.372-0.103 0.146-0.296 0.23-0.316 0.322-0.033 0.117-0.043 0.158-0.042 0.579-0.005 0.422 0.008 0.437 0.038 0.552 0.027 0.092 0.22 0.179 0.32 0.322-0.076 0.161-0.25 0.278-0.255 0.373-0.013 0.12-0.017 0.162 0.058 0.576 0.07 0.416 0.084 0.428 0.135 0.537 0.043 0.086 0.248 0.138 0.372 0.262-0.048 0.172-0.199 0.317-0.188 0.409 0.009 0.122 0.013 0.165 0.156 0.559 0.143 0.397 0.158 0.407 0.228 0.505 0.057 0.078 0.267 0.093 0.41 0.193-0.017 0.179-0.141 0.347-0.112 0.437 0.029 0.117 0.04 0.158 0.251 0.522 0.209 0.366 0.227 0.372 0.311 0.458 0.068 0.065 0.278 0.045 0.438 0.118 0.016 0.179-0.077 0.367-0.034 0.45 0.049 0.111 0.067 0.148 0.339 0.471 0.269 0.325 0.286 0.328 0.384 0.396 0.079 0.054 0.278-0.002 0.448 0.04 0.002 0.002 0.004 0.004 0.007 0.006 0.042 0.171-0.015 0.37 0.041 0.444 0.067 0.101 0.093 0.135 0.415 0.404 0.321 0.274 0.341 0.273 0.449 0.325 0.087 0.039 0.275-0.053 0.451-0.038 0.075 0.162 0.053 0.37 0.121 0.435 0.083 0.087 0.113 0.116 0.479 0.325 0.363 0.213 0.381 0.209 0.497 0.241 0.093 0.022 0.263-0.1 0.438-0.116 0.102 0.146 0.116 0.356 0.194 0.408 0.098 0.071 0.134 0.094 0.529 0.237 0.395 0.146 0.412 0.141 0.533 0.152 0.095 0.006 0.24-0.145 0.41-0.19 0.125 0.126 0.175 0.33 0.264 0.367 0.107 0.053 0.146 0.069 0.56 0.143 0.415 0.075 0.431 0.064 0.552 0.057 0.096-0.01 0.213-0.184 0.372-0.259 0.146 0.102 0.23 0.293 0.323 0.316 0.115 0.033 0.156 0.042 0.576 0.042 0.421 0.003 0.437-0.01 0.553-0.04 0.093-0.026 0.177-0.218 0.32-0.319 0.162 0.076 0.279 0.25 0.374 0.256 0.119 0.012 0.162 0.015 0.576-0.058 0.415-0.07 0.426-0.087 0.537-0.136 0.086-0.043 0.137-0.246 0.261-0.371 0.172 0.047 0.316 0.198 0.412 0.187 0.119-0.009 0.162-0.014 0.556-0.157 0.397-0.142 0.406-0.158 0.506-0.225 0.077-0.058 0.092-0.268 0.193-0.412 0.178 0.017 0.346 0.14 0.438 0.113 0.116-0.03 0.156-0.043 0.521-0.252 0.366-0.209 0.372-0.228 0.458-0.311 0.067-0.069 0.045-0.277 0.118-0.438 0.178-0.015 0.365 0.078 0.451 0.036 0.109-0.05 0.148-0.068 0.47-0.339 0.323-0.27 0.326-0.288 0.397-0.386 0.053-0.078-0.004-0.275 0.037-0.444 0.004-0.003 0.007-0.007 0.011-0.011 0.17-0.041 0.367 0.016 0.443-0.04 0.099-0.068 0.134-0.093 0.403-0.415 0.271-0.321 0.271-0.34 0.324-0.447 0.039-0.09-0.054-0.278-0.039-0.454 0.162-0.074 0.37-0.052 0.437-0.121 0.085-0.084 0.115-0.114 0.324-0.479 0.213-0.363 0.21-0.382 0.243-0.496 0.023-0.095-0.101-0.264-0.117-0.439 0.146-0.102 0.354-0.117 0.408-0.195 0.07-0.098 0.095-0.133 0.237-0.527 0.146-0.396 0.141-0.412 0.152-0.532 0.006-0.097-0.145-0.242-0.191-0.413 0.127-0.125 0.33-0.176 0.368-0.262 0.051-0.108 0.069-0.147 0.142-0.562 0.075-0.413 0.067-0.431 0.058-0.549-0.011-0.097-0.185-0.214-0.26-0.373 0.103-0.145 0.294-0.23 0.316-0.321 0.032-0.117 0.043-0.158 0.042-0.58C62.538 38.462 62.527 38.447 62.497 38.331zM26.527 34.891c0.587 0.937 0.979 2.008 1.106 3.161l-5.264-0.132L26.527 34.891zM25.786 43.892l-4.157 0.33c0.052-0.094 0.089-0.197 0.089-0.312 0-0.365-0.296-0.662-0.662-0.662-0.365 0-0.662 0.297-0.662 0.662s0.297 0.662 0.662 0.662c0.107 0 0.206-0.032 0.296-0.078l4.189-0.332c-1.373 1.411-3.289 2.291-5.414 2.291-4.175 0-7.559-3.384-7.559-7.557 0-4.175 3.384-7.56 7.559-7.56 2.343 0 4.436 1.066 5.821 2.74l-5.219 3.802-0.225-0.006c-0.228-0.117-0.482-0.19-0.757-0.19-0.916 0-1.662 0.746-1.662 1.666 0 0.918 0.746 1.66 1.662 1.66 0.635 0 1.18-0.357 1.46-0.878l6.225 0.668C27.13 41.963 26.56 43.017 25.786 43.892zM27.622 39.813l-6.23-0.669c-0.019-0.151-0.051-0.298-0.106-0.434l0.753-0.549 5.615 0.141c0.016 0.197 0.03 0.394 0.03 0.594C27.684 39.207 27.659 39.512 27.622 39.813zM29.205 33.636c-0.209-0.364-0.228-0.372-0.311-0.457-0.002-0.002-0.009-0.001-0.012-0.003l1.06-0.772 1.837 5.753-1.417-0.036c-0.038-0.033-0.075-0.069-0.104-0.111 0.075-0.161 0.25-0.278 0.256-0.373 0.013-0.119 0.017-0.162-0.058-0.576-0.072-0.414-0.085-0.429-0.135-0.536-0.042-0.086-0.246-0.138-0.371-0.262 0.047-0.171 0.196-0.316 0.188-0.411-0.01-0.119-0.014-0.162-0.157-0.559-0.143-0.395-0.158-0.406-0.226-0.504-0.058-0.077-0.268-0.093-0.413-0.194 0.017-0.177 0.14-0.346 0.114-0.437C29.427 34.043 29.416 34.001 29.205 33.636zM31.682 40.122c-0.268-0.034-0.383-0.257-0.256-0.496 0 0 0.198-0.371 0.588-0.655 0.007-0.005 0.015-0.008 0.021-0.013l0.403 1.263L31.682 40.122zM32.541 41.347c-0.004 0.061-0.018 0.123-0.045 0.18l-0.337 0.712c-0.115 0.244-0.364 0.285-0.551 0.09 0 0-0.293-0.303-0.443-0.762-0.043-0.134-0.065-0.26-0.08-0.377L32.541 41.347zM30.743 40.148l-0.239-0.026c-0.039-0.09-0.178-0.198-0.245-0.339 0.103-0.145 0.294-0.23 0.316-0.321 0.032-0.117 0.043-0.158 0.042-0.58 0.003-0.357-0.006-0.423-0.026-0.505l1.27 0.032 0.045 0.143C31.339 38.915 30.922 39.481 30.743 40.148zM29.454 43.602c-0.002-0.098-0.095-0.245-0.109-0.404 0.146-0.102 0.354-0.117 0.408-0.195 0.07-0.098 0.095-0.133 0.237-0.527 0.146-0.396 0.141-0.412 0.152-0.532 0.006-0.097-0.145-0.242-0.191-0.413 0.127-0.125 0.33-0.176 0.368-0.262 0.023-0.05 0.04-0.088 0.059-0.153l0.292 0.031c0.108 1.004 0.747 1.85 1.643 2.229L29.454 43.602zM34.236 42.991c0 0-0.38 0.185-0.863 0.185-0.482 0-0.861-0.185-0.861-0.185-0.242-0.118-0.278-0.364-0.08-0.546l0.598-0.55c0.199-0.184 0.521-0.181 0.717 0.005l0.574 0.541C34.516 42.625 34.479 42.874 34.236 42.991zM33.548 39.014c-0.05-0.265 0.128-0.444 0.394-0.397 0 0 0.076 0.017 0.18 0.049l-0.512 0.676L33.548 39.014zM35.678 40.697c0 0 0.059 0.418-0.09 0.878-0.15 0.458-0.443 0.762-0.443 0.762-0.187 0.195-0.432 0.152-0.545-0.092l-0.338-0.739c-0.113-0.246-0.012-0.552 0.225-0.68l0.692-0.378C35.416 40.317 35.641 40.431 35.678 40.697zM34.884 40.143l0.424-0.56c0.015 0.024 0.028 0.048 0.028 0.048 0.127 0.237 0.012 0.458-0.256 0.489L34.884 40.143zM34.388 38.314c-0.313-0.125-0.653-0.198-1.011-0.198-0.082 0-0.158 0.017-0.238 0.024l-2.057-6.442 13.015-6.215L34.388 38.314zM52.045 46.454c-4.174 0-7.559-3.384-7.559-7.558 0-2.671 1.389-5.013 3.479-6.358l3.078 7.388c0.145 0.349 0.482 0.559 0.837 0.559 0.116 0 0.234-0.022 0.349-0.07 0.357-0.149 0.563-0.5 0.552-0.865 0.185-0.075 0.314-0.255 0.314-0.466 0-0.28-0.227-0.506-0.506-0.506-0.047 0-0.089 0.015-0.133 0.027l-2.856-6.856c0.768-0.262 1.588-0.412 2.444-0.412 4.174 0 7.558 3.384 7.558 7.56C59.603 43.069 56.219 46.454 52.045 46.454zM20.83 41.922c0 0.365 0.297 0.661 0.662 0.661 0.366 0 0.662-0.296 0.662-0.661 0-0.366-0.296-0.663-0.662-0.663C21.127 41.259 20.83 41.556 20.83 41.922z" fill="white"></path></svg></g></svg></g></svg></g></svg></g></svg></g><defs><mask></mask></defs><mask><g id="SvgjsG1024"><svg viewBox="0 0 395.52 131.60890439658016" height="131.60890439658016" width="395.52"><g><svg viewBox="0 0 672.5316362496579 223.784263296058" height="131.60890439658016" width="395.52"><g transform="matrix(1,0,0,1,277.01163624965795,55.52535468467822)"><svg viewBox="0 0 395.52 112.73355392670155" height="112.73355392670155" width="395.52"><g id="SvgjsG1023"><svg viewBox="0 0 395.52 112.73355392670155" height="112.73355392670155" width="395.52" id="SvgjsSvg1022"><g><svg viewBox="0 0 395.52 112.73355392670155" height="112.73355392670155" width="395.52"><g transform="matrix(1,0,0,1,0,0)"><svg width="395.52" viewBox="3.78 -33.48 119.48 34.029999999999994" height="112.73355392670155" data-palette-color="url(#eb4f97d0-f4ff-442e-be34-4c589ab7cdf2)"><g class="wordmark-text-0" data-fill-palette-color="primary" id="SvgjsG1021"><path d="M17.05 0L6.6 0 6.6-3.43 16.65-3.43Q19.9-3.43 21.26-4.81 22.63-6.2 22.63-8.65L22.63-8.65 22.63-9.55Q22.63-12.05 21.24-13.43 19.85-14.8 16.4-14.8L16.4-14.8 6.63-14.8 6.63-18.07 16.35-18.07Q19.43-18.07 20.74-19.41 22.05-20.75 22.05-23.13L22.05-23.13 22.05-23.58Q22.05-25.93 20.79-27.24 19.53-28.55 16.32-28.55L16.32-28.55 6.53-28.55 6.53-31.95 16.7-31.95Q21.8-31.95 24-29.93 26.2-27.9 26.2-24.23L26.2-24.23 26.2-23.73Q26.2-20.8 24.8-19.13 23.4-17.45 20.45-17.13L20.45-17.13 20.43-16.98Q23.8-16.48 25.33-14.63 26.85-12.78 26.85-9.47L26.85-9.47 26.85-8.45Q26.85-4.48 24.55-2.24 22.25 0 17.05 0L17.05 0ZM7.88 0L3.78 0 3.78-31.95 7.88-31.95 7.88 0ZM36.47 0L32.42 0 32.42-24.4 36.47-24.4 36.47 0ZM34.45-28.4L34.45-28.4Q33.2-28.4 32.59-29.06 31.97-29.73 31.97-30.88L31.97-30.88 31.97-31Q31.97-32.18 32.59-32.83 33.2-33.48 34.45-33.48L34.45-33.48Q35.7-33.48 36.32-32.83 36.95-32.18 36.95-31L36.95-31 36.95-30.88Q36.95-29.7 36.32-29.05 35.7-28.4 34.45-28.4ZM63.87 0L59.02 0 49.37-11.38 46.8-11.38 46.8-14.53 49.37-14.53 58.62-24.4 63.42-24.4 52.35-12.63 52.35-13.6 63.87 0ZM47.2 0L43.17 0 43.17-33.13 47.2-33.13 47.2 0ZM72.02 0L67.97 0 67.97-24.4 72.02-24.4 72.02 0ZM69.99-28.4L69.99-28.4Q68.74-28.4 68.13-29.06 67.52-29.73 67.52-30.88L67.52-30.88 67.52-31Q67.52-32.18 68.13-32.83 68.74-33.48 69.99-33.48L69.99-33.48Q71.24-33.48 71.87-32.83 72.49-32.18 72.49-31L72.49-31 72.49-30.88Q72.49-29.7 71.87-29.05 71.24-28.4 69.99-28.4ZM88.97 0.55L88.97 0.55Q83.39 0.55 80.57-2.18 77.74-4.9 77.74-9.98L77.74-9.98 77.74-14.33Q77.74-19.48 80.37-22.26 82.99-25.05 88.04-25.05L88.04-25.05Q91.44-25.05 93.72-23.79 95.99-22.53 97.14-20.2 98.29-17.88 98.29-14.65L98.29-14.65 98.29-13.75Q98.29-12.95 98.23-12.15 98.17-11.35 98.07-10.58L98.07-10.58 94.34-10.58Q94.39-11.78 94.4-12.85 94.42-13.93 94.42-14.83L94.42-14.83Q94.42-17.05 93.7-18.59 92.99-20.13 91.58-20.94 90.17-21.75 88.04-21.75L88.04-21.75Q84.89-21.75 83.32-19.93 81.74-18.1 81.74-14.7L81.74-14.7 81.74-12.38 81.77-11.88 81.77-9.55Q81.77-8.03 82.22-6.8 82.67-5.58 83.63-4.69 84.59-3.8 86.08-3.34 87.57-2.88 89.62-2.88L89.62-2.88Q91.99-2.88 94.04-3.5 96.09-4.13 97.89-5.2L97.89-5.2 97.52-1.7Q95.89-0.68 93.74-0.06 91.59 0.55 88.97 0.55ZM97.22-10.58L79.87-10.58 79.87-13.63 97.22-13.63 97.22-10.58ZM113.94 0.55L113.94 0.55Q108.36 0.55 105.54-2.18 102.71-4.9 102.71-9.98L102.71-9.98 102.71-14.33Q102.71-19.48 105.34-22.26 107.96-25.05 113.01-25.05L113.01-25.05Q116.41-25.05 118.69-23.79 120.96-22.53 122.11-20.2 123.26-17.88 123.26-14.65L123.26-14.65 123.26-13.75Q123.26-12.95 123.2-12.15 123.14-11.35 123.04-10.58L123.04-10.58 119.31-10.58Q119.36-11.78 119.38-12.85 119.39-13.93 119.39-14.83L119.39-14.83Q119.39-17.05 118.68-18.59 117.96-20.13 116.55-20.94 115.14-21.75 113.01-21.75L113.01-21.75Q109.86-21.75 108.29-19.93 106.71-18.1 106.71-14.7L106.71-14.7 106.71-12.38 106.74-11.88 106.74-9.55Q106.74-8.03 107.19-6.8 107.64-5.58 108.6-4.69 109.56-3.8 111.05-3.34 112.54-2.88 114.59-2.88L114.59-2.88Q116.96-2.88 119.01-3.5 121.06-4.13 122.86-5.2L122.86-5.2 122.49-1.7Q120.86-0.68 118.71-0.06 116.56 0.55 113.94 0.55ZM122.19-10.58L104.84-10.58 104.84-13.63 122.19-13.63 122.19-10.58Z" fill="black"></path></g></svg></g></svg></g></svg></g></svg></g><g><svg viewBox="0 0 223.784263296058 223.784263296058" height="223.784263296058" width="223.784263296058"><g><svg></svg></g><g id="SvgjsG1020"><svg viewBox="0 0 223.784263296058 223.784263296058" height="223.784263296058" width="223.784263296058"><g><path d="M0 111.892c0-61.796 50.096-111.892 111.892-111.892 61.796 0 111.892 50.096 111.892 111.892 0 61.796-50.096 111.892-111.892 111.892-61.796 0-111.892-50.096-111.892-111.892zM111.892 213.618c56.182 0 101.726-45.544 101.726-101.726 0-56.182-45.544-101.726-101.726-101.726-56.182 0-101.726 45.544-101.726 101.726 0 56.182 45.544 101.726 101.726 101.726z" fill="black" stroke="transparent"></path></g><g transform="matrix(1,0,0,1,50.39584599584671,76.6104848258532)"><svg viewBox="0 0 122.99257130436456 70.56329364435157" height="70.56329364435157" width="122.99257130436456"><g><svg xmlns="http://www.w3.org/2000/svg" xmlns:xlink="http://www.w3.org/1999/xlink" version="1.1" x="0" y="0" viewBox="9.62495563852429 19.042000000000023 52.908078735388784 30.35442105462534" enable-background="new 0 0 72 72" xml:space="preserve" height="70.56329364435157" width="122.99257130436456" class="icon-cg-0" data-fill-palette-color="accent" id="SvgjsSvg1019"><path d="M62.497 38.331c-0.027-0.091-0.22-0.177-0.321-0.321 0.075-0.161 0.25-0.278 0.256-0.373 0.013-0.119 0.017-0.162-0.058-0.576-0.072-0.414-0.085-0.429-0.135-0.536-0.042-0.086-0.246-0.138-0.371-0.262 0.047-0.171 0.196-0.316 0.188-0.411-0.01-0.119-0.014-0.162-0.157-0.559-0.143-0.395-0.158-0.406-0.226-0.504-0.058-0.077-0.268-0.093-0.413-0.194 0.017-0.177 0.14-0.346 0.114-0.437-0.029-0.115-0.04-0.157-0.251-0.522-0.209-0.364-0.228-0.372-0.311-0.457-0.069-0.067-0.278-0.045-0.439-0.119-0.015-0.177 0.076-0.365 0.036-0.45-0.049-0.108-0.067-0.146-0.338-0.471-0.271-0.323-0.288-0.328-0.386-0.396-0.077-0.053-0.271 0.003-0.439-0.035-0.006-0.006-0.012-0.012-0.019-0.019-0.039-0.169 0.016-0.362-0.037-0.438-0.067-0.098-0.092-0.133-0.415-0.404-0.322-0.271-0.341-0.273-0.448-0.323-0.088-0.039-0.276 0.052-0.452 0.039-0.075-0.161-0.054-0.369-0.121-0.436-0.084-0.085-0.114-0.116-0.479-0.326-0.365-0.212-0.383-0.21-0.499-0.24-0.093-0.024-0.262 0.1-0.438 0.116-0.103-0.146-0.117-0.355-0.195-0.409-0.096-0.07-0.131-0.094-0.528-0.238-0.396-0.144-0.413-0.141-0.531-0.148-0.096-0.008-0.242 0.143-0.414 0.189-0.125-0.125-0.175-0.329-0.261-0.37-0.108-0.051-0.146-0.068-0.562-0.142-0.414-0.074-0.432-0.065-0.551-0.055-0.094 0.008-0.212 0.183-0.372 0.259-0.146-0.102-0.23-0.293-0.323-0.318-0.114-0.033-0.155-0.043-0.577-0.043-0.421 0-0.437 0.01-0.552 0.043-0.092 0.025-0.178 0.217-0.323 0.318-0.161-0.077-0.276-0.251-0.37-0.256-0.121-0.013-0.164-0.016-0.578 0.057-0.416 0.071-0.426 0.086-0.538 0.138-0.085 0.042-0.136 0.245-0.261 0.37-0.172-0.047-0.316-0.199-0.409-0.187-0.121 0.009-0.164 0.013-0.559 0.157-0.397 0.141-0.405 0.156-0.505 0.228-0.073 0.052-0.093 0.237-0.177 0.378l-0.58-1.429c0.099-0.189 0.124-0.414 0.037-0.626l-1.798-4.383c0.096-0.16 0.2-0.338 0.321-0.533 0.382-0.629 0.803-1.398 0.816-2.221 0-0.127-0.019-0.258-0.047-0.389 0.029-0.048 0.059-0.096 0.073-0.154 0 0 0.001 0 0.007-0.025 0.005-0.025 0.012-0.07 0.012-0.118 0.02-0.233-0.174-0.54-0.372-0.624-0.192-0.098-0.337-0.102-0.471-0.104-0.45 0.008-0.95 0.154-1.518 0.286-0.556 0.136-1.146 0.259-1.538 0.257-0.096 0-0.18-0.008-0.241-0.02v0.001c-0.31-0.054-0.604 0.152-0.659 0.462-0.055 0.309 0.152 0.604 0.461 0.659 0.146 0.025 0.293 0.036 0.439 0.036 0.311-0.002 0.633-0.045 0.953-0.104-0.16 0.109-0.418 0.193-0.91 0.201-0.159 0-0.342-0.012-0.551-0.035-0.156-0.018-0.297 0.095-0.314 0.252-0.018 0.156 0.094 0.297 0.25 0.314 0.227 0.025 0.431 0.037 0.617 0.037 0 0 0.005 0 0.009 0 0.672 0 1.103-0.172 1.372-0.42 0.207-0.191 0.307-0.403 0.371-0.533 0.002 0 0.006 0 0.006 0 0.322-0.081 0.634-0.154 0.871-0.202 0.023 0.052 0.039 0.116 0.041 0.222 0.007 0.278-0.156 0.752-0.395 1.191-0.152 0.285-0.326 0.555-0.483 0.784-0.078 0.005-0.157 0.013-0.233 0.044-0.372 0.152-0.55 0.569-0.417 0.944-0.002 0.012-0.007 0.016-0.009 0.029 0 0 0.024 0.19 0.131 0.568l0.1-0.039 0.136 0.33-13.466 6.43-0.404-1.267c-0.046-0.146-0.146-0.255-0.264-0.334l-2.161-6.769c0.458-0.167 0.875-0.328 1.064-0.328 0.4 0 2.021 0.383 3.013 0.383 0.992 0-0.323-1.03-1.105-1.03-0.781 0-7.248 0-7.248 0-0.42 0-0.419 0.553 0.115 0.553 0.533 0 2.021 0.801 2.727 0.801 0.138 0 0.305-0.032 0.481-0.075l2.161 6.769c-0.052 0.133-0.068 0.28-0.021 0.426l0.49 1.536-1.299 0.946c-0.043-0.053-0.096-0.118-0.17-0.208-0.271-0.323-0.288-0.328-0.386-0.396-0.077-0.053-0.271 0.003-0.439-0.035-0.006-0.006-0.012-0.012-0.019-0.019-0.039-0.169 0.016-0.362-0.037-0.438-0.067-0.098-0.092-0.133-0.415-0.404-0.322-0.271-0.341-0.273-0.448-0.323-0.088-0.039-0.276 0.052-0.452 0.039-0.075-0.161-0.054-0.369-0.121-0.436-0.084-0.085-0.114-0.116-0.479-0.326-0.365-0.212-0.383-0.21-0.499-0.24-0.093-0.024-0.262 0.1-0.438 0.116-0.103-0.146-0.117-0.355-0.195-0.409-0.096-0.07-0.131-0.094-0.528-0.238-0.396-0.144-0.413-0.141-0.531-0.148-0.096-0.008-0.242 0.143-0.414 0.189-0.125-0.125-0.175-0.329-0.261-0.37-0.108-0.051-0.146-0.068-0.562-0.142-0.414-0.074-0.432-0.065-0.551-0.055-0.094 0.008-0.212 0.183-0.372 0.259-0.146-0.102-0.23-0.293-0.323-0.318-0.114-0.033-0.155-0.043-0.577-0.043-0.421 0-0.437 0.01-0.552 0.043-0.092 0.025-0.178 0.217-0.323 0.318-0.161-0.077-0.276-0.251-0.37-0.256-0.121-0.013-0.164-0.016-0.578 0.057-0.416 0.071-0.426 0.086-0.538 0.138-0.085 0.042-0.136 0.245-0.261 0.37-0.172-0.047-0.316-0.199-0.409-0.187-0.121 0.009-0.164 0.013-0.559 0.157-0.397 0.141-0.405 0.156-0.505 0.228-0.078 0.056-0.093 0.266-0.193 0.409-0.178-0.016-0.346-0.14-0.436-0.113-0.119 0.03-0.16 0.041-0.523 0.252-0.366 0.209-0.372 0.226-0.458 0.312-0.067 0.067-0.045 0.277-0.118 0.437-0.179 0.015-0.366-0.079-0.449-0.036-0.112 0.051-0.15 0.068-0.473 0.339-0.323 0.27-0.326 0.286-0.396 0.387-0.053 0.078 0.004 0.274-0.036 0.441-0.004 0.004-0.008 0.009-0.013 0.013-0.17 0.041-0.366-0.017-0.44 0.04-0.101 0.067-0.136 0.093-0.406 0.414-0.271 0.322-0.271 0.339-0.322 0.45-0.04 0.088 0.053 0.277 0.037 0.452-0.162 0.075-0.37 0.05-0.433 0.119-0.088 0.086-0.118 0.116-0.329 0.48-0.212 0.364-0.208 0.381-0.24 0.498-0.024 0.094 0.101 0.264 0.116 0.438-0.146 0.103-0.356 0.115-0.408 0.194-0.07 0.1-0.095 0.135-0.237 0.529-0.147 0.396-0.14 0.412-0.151 0.533-0.007 0.096 0.145 0.243 0.19 0.411-0.127 0.126-0.331 0.175-0.368 0.262-0.052 0.109-0.068 0.148-0.142 0.562-0.077 0.414-0.067 0.431-0.058 0.551 0.011 0.096 0.186 0.214 0.26 0.372-0.103 0.146-0.296 0.23-0.316 0.322-0.033 0.117-0.043 0.158-0.042 0.579-0.005 0.422 0.008 0.437 0.038 0.552 0.027 0.092 0.22 0.179 0.32 0.322-0.076 0.161-0.25 0.278-0.255 0.373-0.013 0.12-0.017 0.162 0.058 0.576 0.07 0.416 0.084 0.428 0.135 0.537 0.043 0.086 0.248 0.138 0.372 0.262-0.048 0.172-0.199 0.317-0.188 0.409 0.009 0.122 0.013 0.165 0.156 0.559 0.143 0.397 0.158 0.407 0.228 0.505 0.057 0.078 0.267 0.093 0.41 0.193-0.017 0.179-0.141 0.347-0.112 0.437 0.029 0.117 0.04 0.158 0.251 0.522 0.209 0.366 0.227 0.372 0.311 0.458 0.068 0.065 0.278 0.045 0.438 0.118 0.016 0.179-0.077 0.367-0.034 0.45 0.049 0.111 0.067 0.148 0.339 0.471 0.269 0.325 0.286 0.328 0.384 0.396 0.079 0.054 0.278-0.002 0.448 0.04 0.002 0.002 0.004 0.004 0.007 0.006 0.042 0.171-0.015 0.37 0.041 0.444 0.067 0.101 0.093 0.135 0.415 0.404 0.321 0.274 0.341 0.273 0.449 0.325 0.087 0.039 0.275-0.053 0.451-0.038 0.075 0.162 0.053 0.37 0.121 0.435 0.083 0.087 0.113 0.116 0.479 0.325 0.363 0.213 0.381 0.209 0.497 0.241 0.093 0.022 0.263-0.1 0.438-0.116 0.102 0.146 0.116 0.356 0.194 0.408 0.098 0.071 0.134 0.094 0.529 0.237 0.395 0.146 0.412 0.141 0.533 0.152 0.095 0.006 0.24-0.145 0.41-0.19 0.125 0.126 0.175 0.33 0.264 0.367 0.107 0.053 0.146 0.069 0.56 0.143 0.415 0.075 0.431 0.064 0.552 0.057 0.096-0.01 0.213-0.184 0.372-0.259 0.146 0.102 0.23 0.293 0.323 0.316 0.115 0.033 0.156 0.042 0.576 0.042 0.421 0.003 0.437-0.01 0.553-0.04 0.093-0.026 0.177-0.218 0.32-0.319 0.162 0.076 0.279 0.25 0.374 0.256 0.119 0.012 0.162 0.015 0.576-0.058 0.415-0.07 0.426-0.087 0.537-0.136 0.086-0.043 0.137-0.246 0.261-0.371 0.172 0.047 0.316 0.198 0.412 0.187 0.119-0.009 0.162-0.014 0.556-0.157 0.397-0.142 0.406-0.158 0.506-0.225 0.077-0.058 0.092-0.268 0.193-0.412 0.178 0.017 0.346 0.14 0.438 0.113 0.116-0.03 0.156-0.043 0.521-0.252 0.366-0.209 0.372-0.228 0.458-0.311 0.067-0.069 0.045-0.277 0.118-0.438 0.178-0.015 0.365 0.078 0.451 0.036 0.109-0.05 0.148-0.068 0.47-0.339 0.323-0.27 0.326-0.288 0.397-0.386 0.053-0.078-0.004-0.275 0.037-0.444 0.004-0.003 0.007-0.007 0.011-0.011 0.17-0.041 0.367 0.016 0.443-0.04 0.099-0.068 0.134-0.093 0.403-0.415 0.271-0.321 0.271-0.34 0.324-0.447 0.039-0.09-0.054-0.278-0.039-0.454 0.162-0.074 0.37-0.052 0.437-0.121 0.085-0.084 0.115-0.114 0.324-0.479 0.078-0.134 0.122-0.212 0.154-0.274l3.732-0.296c0.091 0.009 0.179 0.027 0.271 0.027 1.512 0 2.737-1.226 2.737-2.737 0-0.608-0.205-1.166-0.542-1.62l9.592-12.676 0.657 1.603c0.079 0.194 0.233 0.33 0.413 0.403l0.515 1.269c-0.331 0.19-0.347 0.212-0.43 0.296-0.067 0.067-0.045 0.277-0.118 0.437-0.179 0.015-0.366-0.079-0.449-0.036-0.112 0.051-0.15 0.068-0.473 0.339-0.323 0.27-0.326 0.286-0.396 0.387-0.053 0.078 0.004 0.274-0.036 0.441-0.004 0.004-0.008 0.009-0.013 0.013-0.17 0.041-0.366-0.017-0.44 0.04-0.101 0.067-0.136 0.093-0.406 0.414-0.271 0.322-0.271 0.339-0.322 0.45-0.04 0.088 0.053 0.277 0.037 0.452-0.162 0.075-0.37 0.05-0.433 0.119-0.088 0.086-0.118 0.116-0.329 0.48-0.212 0.364-0.208 0.381-0.24 0.498-0.024 0.094 0.101 0.264 0.116 0.438-0.146 0.103-0.356 0.115-0.408 0.194-0.07 0.1-0.095 0.135-0.237 0.529-0.147 0.396-0.14 0.412-0.151 0.533-0.007 0.096 0.145 0.243 0.19 0.411-0.127 0.126-0.331 0.175-0.368 0.262-0.052 0.109-0.068 0.148-0.142 0.562-0.077 0.414-0.067 0.431-0.058 0.551 0.011 0.096 0.186 0.214 0.26 0.372-0.103 0.146-0.296 0.23-0.316 0.322-0.033 0.117-0.043 0.158-0.042 0.579-0.005 0.422 0.008 0.437 0.038 0.552 0.027 0.092 0.22 0.179 0.32 0.322-0.076 0.161-0.25 0.278-0.255 0.373-0.013 0.12-0.017 0.162 0.058 0.576 0.07 0.416 0.084 0.428 0.135 0.537 0.043 0.086 0.248 0.138 0.372 0.262-0.048 0.172-0.199 0.317-0.188 0.409 0.009 0.122 0.013 0.165 0.156 0.559 0.143 0.397 0.158 0.407 0.228 0.505 0.057 0.078 0.267 0.093 0.41 0.193-0.017 0.179-0.141 0.347-0.112 0.437 0.029 0.117 0.04 0.158 0.251 0.522 0.209 0.366 0.227 0.372 0.311 0.458 0.068 0.065 0.278 0.045 0.438 0.118 0.016 0.179-0.077 0.367-0.034 0.45 0.049 0.111 0.067 0.148 0.339 0.471 0.269 0.325 0.286 0.328 0.384 0.396 0.079 0.054 0.278-0.002 0.448 0.04 0.002 0.002 0.004 0.004 0.007 0.006 0.042 0.171-0.015 0.37 0.041 0.444 0.067 0.101 0.093 0.135 0.415 0.404 0.321 0.274 0.341 0.273 0.449 0.325 0.087 0.039 0.275-0.053 0.451-0.038 0.075 0.162 0.053 0.37 0.121 0.435 0.083 0.087 0.113 0.116 0.479 0.325 0.363 0.213 0.381 0.209 0.497 0.241 0.093 0.022 0.263-0.1 0.438-0.116 0.102 0.146 0.116 0.356 0.194 0.408 0.098 0.071 0.134 0.094 0.529 0.237 0.395 0.146 0.412 0.141 0.533 0.152 0.095 0.006 0.24-0.145 0.41-0.19 0.125 0.126 0.175 0.33 0.264 0.367 0.107 0.053 0.146 0.069 0.56 0.143 0.415 0.075 0.431 0.064 0.552 0.057 0.096-0.01 0.213-0.184 0.372-0.259 0.146 0.102 0.23 0.293 0.323 0.316 0.115 0.033 0.156 0.042 0.576 0.042 0.421 0.003 0.437-0.01 0.553-0.04 0.093-0.026 0.177-0.218 0.32-0.319 0.162 0.076 0.279 0.25 0.374 0.256 0.119 0.012 0.162 0.015 0.576-0.058 0.415-0.07 0.426-0.087 0.537-0.136 0.086-0.043 0.137-0.246 0.261-0.371 0.172 0.047 0.316 0.198 0.412 0.187 0.119-0.009 0.162-0.014 0.556-0.157 0.397-0.142 0.406-0.158 0.506-0.225 0.077-0.058 0.092-0.268 0.193-0.412 0.178 0.017 0.346 0.14 0.438 0.113 0.116-0.03 0.156-0.043 0.521-0.252 0.366-0.209 0.372-0.228 0.458-0.311 0.067-0.069 0.045-0.277 0.118-0.438 0.178-0.015 0.365 0.078 0.451 0.036 0.109-0.05 0.148-0.068 0.47-0.339 0.323-0.27 0.326-0.288 0.397-0.386 0.053-0.078-0.004-0.275 0.037-0.444 0.004-0.003 0.007-0.007 0.011-0.011 0.17-0.041 0.367 0.016 0.443-0.04 0.099-0.068 0.134-0.093 0.403-0.415 0.271-0.321 0.271-0.34 0.324-0.447 0.039-0.09-0.054-0.278-0.039-0.454 0.162-0.074 0.37-0.052 0.437-0.121 0.085-0.084 0.115-0.114 0.324-0.479 0.213-0.363 0.21-0.382 0.243-0.496 0.023-0.095-0.101-0.264-0.117-0.439 0.146-0.102 0.354-0.117 0.408-0.195 0.07-0.098 0.095-0.133 0.237-0.527 0.146-0.396 0.141-0.412 0.152-0.532 0.006-0.097-0.145-0.242-0.191-0.413 0.127-0.125 0.33-0.176 0.368-0.262 0.051-0.108 0.069-0.147 0.142-0.562 0.075-0.413 0.067-0.431 0.058-0.549-0.011-0.097-0.185-0.214-0.26-0.373 0.103-0.145 0.294-0.23 0.316-0.321 0.032-0.117 0.043-0.158 0.042-0.58C62.538 38.462 62.527 38.447 62.497 38.331zM26.527 34.891c0.587 0.937 0.979 2.008 1.106 3.161l-5.264-0.132L26.527 34.891zM25.786 43.892l-4.157 0.33c0.052-0.094 0.089-0.197 0.089-0.312 0-0.365-0.296-0.662-0.662-0.662-0.365 0-0.662 0.297-0.662 0.662s0.297 0.662 0.662 0.662c0.107 0 0.206-0.032 0.296-0.078l4.189-0.332c-1.373 1.411-3.289 2.291-5.414 2.291-4.175 0-7.559-3.384-7.559-7.557 0-4.175 3.384-7.56 7.559-7.56 2.343 0 4.436 1.066 5.821 2.74l-5.219 3.802-0.225-0.006c-0.228-0.117-0.482-0.19-0.757-0.19-0.916 0-1.662 0.746-1.662 1.666 0 0.918 0.746 1.66 1.662 1.66 0.635 0 1.18-0.357 1.46-0.878l6.225 0.668C27.13 41.963 26.56 43.017 25.786 43.892zM27.622 39.813l-6.23-0.669c-0.019-0.151-0.051-0.298-0.106-0.434l0.753-0.549 5.615 0.141c0.016 0.197 0.03 0.394 0.03 0.594C27.684 39.207 27.659 39.512 27.622 39.813zM29.205 33.636c-0.209-0.364-0.228-0.372-0.311-0.457-0.002-0.002-0.009-0.001-0.012-0.003l1.06-0.772 1.837 5.753-1.417-0.036c-0.038-0.033-0.075-0.069-0.104-0.111 0.075-0.161 0.25-0.278 0.256-0.373 0.013-0.119 0.017-0.162-0.058-0.576-0.072-0.414-0.085-0.429-0.135-0.536-0.042-0.086-0.246-0.138-0.371-0.262 0.047-0.171 0.196-0.316 0.188-0.411-0.01-0.119-0.014-0.162-0.157-0.559-0.143-0.395-0.158-0.406-0.226-0.504-0.058-0.077-0.268-0.093-0.413-0.194 0.017-0.177 0.14-0.346 0.114-0.437C29.427 34.043 29.416 34.001 29.205 33.636zM31.682 40.122c-0.268-0.034-0.383-0.257-0.256-0.496 0 0 0.198-0.371 0.588-0.655 0.007-0.005 0.015-0.008 0.021-0.013l0.403 1.263L31.682 40.122zM32.541 41.347c-0.004 0.061-0.018 0.123-0.045 0.18l-0.337 0.712c-0.115 0.244-0.364 0.285-0.551 0.09 0 0-0.293-0.303-0.443-0.762-0.043-0.134-0.065-0.26-0.08-0.377L32.541 41.347zM30.743 40.148l-0.239-0.026c-0.039-0.09-0.178-0.198-0.245-0.339 0.103-0.145 0.294-0.23 0.316-0.321 0.032-0.117 0.043-0.158 0.042-0.58 0.003-0.357-0.006-0.423-0.026-0.505l1.27 0.032 0.045 0.143C31.339 38.915 30.922 39.481 30.743 40.148zM29.454 43.602c-0.002-0.098-0.095-0.245-0.109-0.404 0.146-0.102 0.354-0.117 0.408-0.195 0.07-0.098 0.095-0.133 0.237-0.527 0.146-0.396 0.141-0.412 0.152-0.532 0.006-0.097-0.145-0.242-0.191-0.413 0.127-0.125 0.33-0.176 0.368-0.262 0.023-0.05 0.04-0.088 0.059-0.153l0.292 0.031c0.108 1.004 0.747 1.85 1.643 2.229L29.454 43.602zM34.236 42.991c0 0-0.38 0.185-0.863 0.185-0.482 0-0.861-0.185-0.861-0.185-0.242-0.118-0.278-0.364-0.08-0.546l0.598-0.55c0.199-0.184 0.521-0.181 0.717 0.005l0.574 0.541C34.516 42.625 34.479 42.874 34.236 42.991zM33.548 39.014c-0.05-0.265 0.128-0.444 0.394-0.397 0 0 0.076 0.017 0.18 0.049l-0.512 0.676L33.548 39.014zM35.678 40.697c0 0 0.059 0.418-0.09 0.878-0.15 0.458-0.443 0.762-0.443 0.762-0.187 0.195-0.432 0.152-0.545-0.092l-0.338-0.739c-0.113-0.246-0.012-0.552 0.225-0.68l0.692-0.378C35.416 40.317 35.641 40.431 35.678 40.697zM34.884 40.143l0.424-0.56c0.015 0.024 0.028 0.048 0.028 0.048 0.127 0.237 0.012 0.458-0.256 0.489L34.884 40.143zM34.388 38.314c-0.313-0.125-0.653-0.198-1.011-0.198-0.082 0-0.158 0.017-0.238 0.024l-2.057-6.442 13.015-6.215L34.388 38.314zM52.045 46.454c-4.174 0-7.559-3.384-7.559-7.558 0-2.671 1.389-5.013 3.479-6.358l3.078 7.388c0.145 0.349 0.482 0.559 0.837 0.559 0.116 0 0.234-0.022 0.349-0.07 0.357-0.149 0.563-0.5 0.552-0.865 0.185-0.075 0.314-0.255 0.314-0.466 0-0.28-0.227-0.506-0.506-0.506-0.047 0-0.089 0.015-0.133 0.027l-2.856-6.856c0.768-0.262 1.588-0.412 2.444-0.412 4.174 0 7.558 3.384 7.558 7.56C59.603 43.069 56.219 46.454 52.045 46.454zM20.83 41.922c0 0.365 0.297 0.661 0.662 0.661 0.366 0 0.662-0.296 0.662-0.661 0-0.366-0.296-0.663-0.662-0.663C21.127 41.259 20.83 41.556 20.83 41.922z" fill="black"></path></svg></g></svg></g></svg></g></svg></g></svg></g><defs><mask></mask></defs></svg><rect width="395.52" height="131.60890439658016" fill="black" stroke="none" visibility="hidden"></rect></g></mask></svg><rect width="395.52" height="131.60890439658016" fill="black" stroke="none" visibility="hidden"></rect></g></mask><linearGradient x1="0.054" x2="0.941" y1="0.5" y2="0.5" id="a03bf26d-3724-44da-b2f9-3717f5d42791"><stop stop-color="#9c7945" offset="0"></stop><stop stop-color="#faf3aa" offset="0.498"></stop><stop stop-color="#9c7945" offset="1"></stop></linearGradient><rect width="395.52" height="131.60890439658016" fill="#000000" mask="url(#ed388cef-dfcf-498c-b550-267158ba795b)" data-fill-palette-color="accent"></rect></svg><rect width="395.52" height="131.60890439658016" fill="none" stroke="none" visibility="hidden"></rect></g></svg></g></svg>